<mxfile host="app.diagrams.net" modified="2024-02-12T10:30:08.866Z" agent="Mozilla/5.0 (X11; Linux x86_64) AppleWebKit/537.36 (KHTML, like Gecko) Chrome/121.0.0.0 Safari/537.36" etag="Y6busR7YFuIuUKVfCs2_" version="23.1.2" type="github">
  <diagram id="R2lEEEUBdFMjLlhIrx00" name="Page-1">
    <mxGraphModel dx="2058" dy="1103" grid="1" gridSize="10" guides="1" tooltips="1" connect="1" arrows="1" fold="1" page="1" pageScale="1" pageWidth="850" pageHeight="1100" math="0" shadow="0" extFonts="Permanent Marker^https://fonts.googleapis.com/css?family=Permanent+Marker">
      <root>
        <mxCell id="0" />
        <mxCell id="1" parent="0" />
        <mxCell id="D924VpzKZGNG5bENjpo5-13" value="" style="group" vertex="1" connectable="0" parent="1">
          <mxGeometry x="20" y="440" width="160" height="180" as="geometry" />
        </mxCell>
        <mxCell id="D924VpzKZGNG5bENjpo5-7" value="" style="rounded=1;whiteSpace=wrap;html=1;container=0;" vertex="1" parent="D924VpzKZGNG5bENjpo5-13">
          <mxGeometry width="160" height="180" as="geometry" />
        </mxCell>
        <mxCell id="D924VpzKZGNG5bENjpo5-8" value="ECoS" style="text;html=1;strokeColor=none;fillColor=none;align=center;verticalAlign=middle;whiteSpace=wrap;rounded=0;container=0;" vertex="1" parent="D924VpzKZGNG5bENjpo5-13">
          <mxGeometry x="50" y="8.468999999999998" width="60" height="27" as="geometry" />
        </mxCell>
        <mxCell id="D924VpzKZGNG5bENjpo5-15" value="" style="group" vertex="1" connectable="0" parent="1">
          <mxGeometry x="280" y="200" width="240" height="440" as="geometry" />
        </mxCell>
        <mxCell id="D924VpzKZGNG5bENjpo5-1" value="" style="rounded=1;whiteSpace=wrap;html=1;container=0;" vertex="1" parent="D924VpzKZGNG5bENjpo5-15">
          <mxGeometry width="240" height="440" as="geometry" />
        </mxCell>
        <mxCell id="D924VpzKZGNG5bENjpo5-4" value="EBL Coords" style="text;html=1;strokeColor=none;fillColor=none;align=center;verticalAlign=middle;whiteSpace=wrap;rounded=0;container=0;" vertex="1" parent="D924VpzKZGNG5bENjpo5-15">
          <mxGeometry x="75" y="14.70058823529412" width="90" height="19.411764705882355" as="geometry" />
        </mxCell>
        <mxCell id="D924VpzKZGNG5bENjpo5-16" value="" style="group" vertex="1" connectable="0" parent="1">
          <mxGeometry x="20" y="212.5" width="160" height="195" as="geometry" />
        </mxCell>
        <mxCell id="D924VpzKZGNG5bENjpo5-2" value="" style="rounded=1;whiteSpace=wrap;html=1;container=0;" vertex="1" parent="D924VpzKZGNG5bENjpo5-16">
          <mxGeometry width="160" height="195.00000000000003" as="geometry" />
        </mxCell>
        <mxCell id="D924VpzKZGNG5bENjpo5-5" value="Graph DB" style="text;html=1;strokeColor=none;fillColor=none;align=center;verticalAlign=middle;whiteSpace=wrap;rounded=0;container=0;" vertex="1" parent="D924VpzKZGNG5bENjpo5-16">
          <mxGeometry x="50" y="9.174749999999998" width="60" height="29.250000000000004" as="geometry" />
        </mxCell>
        <mxCell id="D924VpzKZGNG5bENjpo5-17" value="" style="endArrow=classic;html=1;rounded=0;exitX=0;exitY=0.5;exitDx=0;exitDy=0;entryX=1;entryY=0.25;entryDx=0;entryDy=0;" edge="1" parent="1" source="D924VpzKZGNG5bENjpo5-3" target="D924VpzKZGNG5bENjpo5-1">
          <mxGeometry width="50" height="50" relative="1" as="geometry">
            <mxPoint x="560" y="360" as="sourcePoint" />
            <mxPoint x="610" y="310" as="targetPoint" />
          </mxGeometry>
        </mxCell>
        <mxCell id="D924VpzKZGNG5bENjpo5-18" value="" style="endArrow=classic;startArrow=classic;html=1;rounded=0;exitX=1;exitY=0.5;exitDx=0;exitDy=0;entryX=0;entryY=0.25;entryDx=0;entryDy=0;" edge="1" parent="1" source="D924VpzKZGNG5bENjpo5-2" target="D924VpzKZGNG5bENjpo5-1">
          <mxGeometry width="50" height="50" relative="1" as="geometry">
            <mxPoint x="210" y="330" as="sourcePoint" />
            <mxPoint x="260" y="280" as="targetPoint" />
          </mxGeometry>
        </mxCell>
        <mxCell id="D924VpzKZGNG5bENjpo5-19" value="" style="endArrow=classic;html=1;rounded=0;exitX=1;exitY=0.5;exitDx=0;exitDy=0;entryX=0;entryY=0.75;entryDx=0;entryDy=0;" edge="1" parent="1" source="D924VpzKZGNG5bENjpo5-7" target="D924VpzKZGNG5bENjpo5-1">
          <mxGeometry width="50" height="50" relative="1" as="geometry">
            <mxPoint x="230" y="830" as="sourcePoint" />
            <mxPoint x="280" y="780" as="targetPoint" />
          </mxGeometry>
        </mxCell>
        <mxCell id="D924VpzKZGNG5bENjpo5-22" value="" style="endArrow=classic;startArrow=classic;html=1;rounded=0;entryX=0.5;entryY=1;entryDx=0;entryDy=0;exitX=0.5;exitY=0;exitDx=0;exitDy=0;" edge="1" parent="1" source="D924VpzKZGNG5bENjpo5-1" target="D924VpzKZGNG5bENjpo5-20">
          <mxGeometry width="50" height="50" relative="1" as="geometry">
            <mxPoint x="370" y="210" as="sourcePoint" />
            <mxPoint x="420" y="160" as="targetPoint" />
          </mxGeometry>
        </mxCell>
        <mxCell id="D924VpzKZGNG5bENjpo5-24" value="Bolt" style="text;html=1;strokeColor=none;fillColor=none;align=center;verticalAlign=middle;whiteSpace=wrap;rounded=0;" vertex="1" parent="1">
          <mxGeometry x="200" y="280" width="60" height="30" as="geometry" />
        </mxCell>
        <mxCell id="D924VpzKZGNG5bENjpo5-25" value="WebSocket" style="text;html=1;strokeColor=none;fillColor=none;align=center;verticalAlign=middle;whiteSpace=wrap;rounded=0;" vertex="1" parent="1">
          <mxGeometry x="540" y="280" width="60" height="30" as="geometry" />
        </mxCell>
        <mxCell id="D924VpzKZGNG5bENjpo5-26" value="WebSocket" style="text;html=1;strokeColor=none;fillColor=none;align=center;verticalAlign=middle;whiteSpace=wrap;rounded=0;" vertex="1" parent="1">
          <mxGeometry x="200" y="490" width="60" height="30" as="geometry" />
        </mxCell>
        <mxCell id="D924VpzKZGNG5bENjpo5-27" value="" style="group" vertex="1" connectable="0" parent="1">
          <mxGeometry x="280" y="40" width="240" height="120" as="geometry" />
        </mxCell>
        <mxCell id="D924VpzKZGNG5bENjpo5-20" value="" style="rounded=1;whiteSpace=wrap;html=1;container=0;" vertex="1" parent="D924VpzKZGNG5bENjpo5-27">
          <mxGeometry width="240" height="120" as="geometry" />
        </mxCell>
        <mxCell id="D924VpzKZGNG5bENjpo5-21" value="Frontend" style="text;html=1;strokeColor=none;fillColor=none;align=center;verticalAlign=middle;whiteSpace=wrap;rounded=0;container=0;" vertex="1" parent="D924VpzKZGNG5bENjpo5-27">
          <mxGeometry x="90" y="9.409999999999997" width="60" height="30" as="geometry" />
        </mxCell>
        <mxCell id="D924VpzKZGNG5bENjpo5-28" value="" style="group" vertex="1" connectable="0" parent="1">
          <mxGeometry x="620" y="210" width="160" height="200" as="geometry" />
        </mxCell>
        <mxCell id="D924VpzKZGNG5bENjpo5-3" value="" style="rounded=1;whiteSpace=wrap;html=1;container=0;" vertex="1" parent="D924VpzKZGNG5bENjpo5-28">
          <mxGeometry width="160" height="200" as="geometry" />
        </mxCell>
        <mxCell id="D924VpzKZGNG5bENjpo5-6" value="GT Command" style="text;html=1;strokeColor=none;fillColor=none;align=center;verticalAlign=middle;whiteSpace=wrap;rounded=0;container=0;" vertex="1" parent="D924VpzKZGNG5bENjpo5-28">
          <mxGeometry x="30" y="9.409999999999997" width="100" height="30" as="geometry" />
        </mxCell>
      </root>
    </mxGraphModel>
  </diagram>
</mxfile>
